HIERARCHY
ROOT Hips
{
	OFFSET 0.000000 0.000000 0.000000
	CHANNELS 6 Xposition Yposition Zposition Xrotation Yrotation Zrotation
	JOINT LeftUpLeg_virtual
	{
		OFFSET 0.000000 0.000000 0.000000
		CHANNELS 3 Xrotation Yrotation Zrotation
		JOINT LeftUpLeg
		{
			OFFSET 15.427100 -6.655098 0.678600
			CHANNELS 3 Xrotation Yrotation Zrotation
			JOINT LeftLeg
			{
				OFFSET 4.081073 -39.591068 13.024000
				CHANNELS 3 Xrotation Yrotation Zrotation
				JOINT LeftFoot
				{
					OFFSET -4.081074 -37.707932 -15.979700
					CHANNELS 3 Xrotation Yrotation Zrotation
					JOINT LeftToeBase
					{
						OFFSET 5.346399 -15.068900 20.645000
						CHANNELS 3 Xrotation Yrotation Zrotation
						JOINT LeftToe_End
						{
							OFFSET 2.754700 0.931300 11.300900
							CHANNELS 3 Xrotation Yrotation Zrotation
							End Site
							{
								OFFSET 0 0 0
							}
						}
					}
				}
			}
		}
	}
	JOINT RightUpLeg_virtual
	{
		OFFSET 0.000000 0.000000 0.000000
		CHANNELS 3 Xrotation Yrotation Zrotation
		JOINT RightUpLeg
		{
			OFFSET -15.569500 -6.655098 0.678600
			CHANNELS 3 Xrotation Yrotation Zrotation
			JOINT RightLeg
			{
				OFFSET -4.081825 -39.591045 13.023800
				CHANNELS 3 Xrotation Yrotation Zrotation
				JOINT RightFoot
				{
					OFFSET 4.081824 -37.707954 -15.979600
					CHANNELS 3 Xrotation Yrotation Zrotation
					JOINT RightToeBase
					{
						OFFSET -5.346400 -15.068900 20.645000
						CHANNELS 3 Xrotation Yrotation Zrotation
						JOINT RightToe_End
						{
							OFFSET -2.754700 0.931300 11.300900
							CHANNELS 3 Xrotation Yrotation Zrotation
							End Site
							{
								OFFSET 0 0 0
							}
						}
					}
				}
			}
		}
	}
	JOINT Spine_virtual
	{
		OFFSET 0.000000 0.000000 0.000000
		CHANNELS 3 Xrotation Yrotation Zrotation
		JOINT Spine
		{
			OFFSET -0.279200 12.230698 -2.892100
			CHANNELS 3 Xrotation Yrotation Zrotation
			JOINT Spine1
			{
				OFFSET -0.232667 10.192268 -1.242267
				CHANNELS 3 Xrotation Yrotation Zrotation
				JOINT Spine1_split
				{
					OFFSET -0.232667 10.192268 -1.242267
					CHANNELS 3 Xrotation Yrotation Zrotation
					JOINT Spine2
					{
						OFFSET -0.232667 10.192268 -1.242267
						CHANNELS 3 Xrotation Yrotation Zrotation
						JOINT Neck_virtual
						{
							OFFSET 0.000000 0.000000 0.000000
							CHANNELS 3 Xrotation Yrotation Zrotation
							JOINT Neck
							{
								OFFSET -0.418800 17.814194 8.416900
								CHANNELS 3 Xrotation Yrotation Zrotation
								JOINT Head
								{
									OFFSET 0.000000 7.031097 3.806800
									CHANNELS 3 Xrotation Yrotation Zrotation
									JOINT HeadTop_End
									{
										OFFSET 0.000000 24.646606 12.978600
										CHANNELS 3 Xrotation Yrotation Zrotation
										End Site
										{
											OFFSET 0 0 0
										}
									}
								}
							}
						}
						JOINT LeftShoulder_virtual
						{
							OFFSET 0.000000 0.000000 0.000000
							CHANNELS 3 Xrotation Yrotation Zrotation
							JOINT LeftShoulder
							{
								OFFSET 8.476499 7.247704 -3.868750
								CHANNELS 3 Xrotation Yrotation Zrotation
								JOINT LeftShoulder_split
								{
									OFFSET 8.476499 7.247704 -3.868750
									CHANNELS 3 Xrotation Yrotation Zrotation
									JOINT LeftArm
									{
										OFFSET 9.308998 -2.777710 0.208600
										CHANNELS 3 Xrotation Yrotation Zrotation
										JOINT LeftForeArm
										{
											OFFSET 29.972298 0.000000 0.000000
											CHANNELS 3 Xrotation Yrotation Zrotation
											JOINT LeftHand
											{
												OFFSET 26.026505 0.000000 0.000000
												CHANNELS 3 Xrotation Yrotation Zrotation
												End Site
												{
													OFFSET 0 0 0
												}
											}
										}
									}
								}
							}
						}
						JOINT RightShoulder_virtual
						{
							OFFSET 0.000000 0.000000 0.000000
							CHANNELS 3 Xrotation Yrotation Zrotation
							JOINT RightShoulder
							{
								OFFSET -7.570500 7.247704 -3.868750
								CHANNELS 3 Xrotation Yrotation Zrotation
								JOINT RightShoulder_split
								{
									OFFSET -7.570500 7.247704 -3.868750
									CHANNELS 3 Xrotation Yrotation Zrotation
									JOINT RightArm
									{
										OFFSET -9.308998 -2.777710 0.208500
										CHANNELS 3 Xrotation Yrotation Zrotation
										JOINT RightForeArm
										{
											OFFSET -29.972300 0.000000 0.000000
											CHANNELS 3 Xrotation Yrotation Zrotation
											JOINT RightHand
											{
												OFFSET -26.026505 0.000000 0.000000
												CHANNELS 3 Xrotation Yrotation Zrotation
												End Site
												{
													OFFSET 0 0 0
												}
											}
										}
									}
								}
							}
						}
					}
				}
			}
		}
	}
}
MOTION
Frames: 4
Frame Time: 0.03333333
-0.061287 78.695023 -0.586697 0.000000 0.000000 0.000000 3.091276 -61.975839 5.299120 -33.442956 7.931091 26.998664 38.045147 -6.937683 -8.219397 -7.528391 -2.161119 -8.787403 0.803356 0.869697 -0.018441 0.000000 0.000000 0.000000 2.186548 -60.518112 5.226327 -28.280788 -8.612884 -28.302817 40.420288 5.066910 -4.829347 -17.875983 1.123664 22.375469 3.268419 -0.624173 -0.477281 0.000000 0.000000 0.000000 2.039474 -60.871950 4.463846 10.352636 1.152789 -1.761904 9.224630 -0.073538 -5.823926 0.762828 -2.807827 1.406238 0.000000 0.000000 0.000000 10.146582 0.286868 -5.797130 -18.889076 20.951042 10.345436 4.816255 29.999506 -5.818701 0.000000 0.000000 0.000000 11.051727 -0.214364 -5.522068 -6.315100 -10.870795 -4.682981 0.522895 -0.204677 -3.446629 -19.671145 8.201216 -34.003407 2.654944 -46.798404 2.259080 0.000000 0.000000 0.000000 10.121326 -0.046057 -5.396825 -4.747229 11.094431 3.926940 4.419914 2.204539 -0.516323 -34.769863 -20.633592 36.294034 -155.409371 63.238010 153.529798 0.000000 0.000000 0.000000 
0.002679 78.691147 -0.204533 0.000000 0.000000 0.000000 3.041242 -61.997183 5.320496 -33.403583 8.073049 26.849231 38.087942 -6.812569 -8.268913 -7.613482 -2.092395 -8.656880 0.779060 0.844982 0.030837 0.000000 0.000000 0.000000 2.156083 -60.615272 5.255788 -28.206207 -8.448671 -28.535931 40.452694 5.142462 -4.768001 -17.928533 1.047230 22.347003 3.170024 -0.596771 -0.491260 0.000000 0.000000 0.000000 2.164356 -60.939323 4.577697 10.360401 1.218835 -1.799194 9.262484 -0.029250 -5.801200 0.781307 -2.921388 1.414458 0.000000 0.000000 0.000000 10.174958 0.315205 -5.813898 -18.747389 20.823246 10.445988 4.706233 29.949290 -5.805402 0.000000 0.000000 0.000000 11.077678 -0.199958 -5.492446 -6.343247 -11.018587 -4.682358 0.409103 -0.338802 -3.423721 -19.848344 8.116616 -34.030420 2.475715 -46.665201 2.295907 0.000000 0.000000 0.000000 10.004593 -0.047105 -5.373677 -4.772823 11.081860 3.902899 4.735960 2.137510 -0.510168 -34.730231 -20.724746 36.543862 -155.362324 63.001440 153.303610 0.000000 0.000000 0.000000 
0.187944 78.724998 0.294338 0.000000 0.000000 0.000000 3.024320 -61.940137 5.374467 -33.309187 8.227309 26.541483 38.303766 -6.749216 -8.315583 -7.865998 -2.113810 -8.354999 0.707659 0.815548 0.116990 0.000000 0.000000 0.000000 2.142850 -60.601222 5.293204 -27.949033 -8.421723 -28.989416 40.163527 5.305187 -4.719571 -17.829833 0.980900 22.558909 3.133059 -0.585114 -0.470085 0.000000 0.000000 0.000000 2.321673 -60.966603 4.748531 10.335765 1.344388 -1.834911 9.297447 0.015895 -5.755426 0.807827 -2.927533 1.366891 0.000000 0.000000 0.000000 10.179792 0.345615 -5.808620 -18.635821 20.530744 10.548694 4.599855 29.748288 -6.021486 0.000000 0.000000 0.000000 11.058028 -0.197410 -5.444445 -6.384774 -11.187160 -4.766874 0.222236 -0.401084 -3.479665 -20.317041 7.776042 -33.957901 2.490088 -46.141059 2.615323 0.000000 0.000000 0.000000 9.874351 -0.049117 -5.333041 -4.827078 11.071903 4.054080 4.854587 2.045069 -0.464482 -34.481216 -21.016735 36.937660 -155.631789 63.218728 153.037041 0.000000 0.000000 0.000000 
0.476263 78.773743 0.851055 0.000000 0.000000 0.000000 3.051484 -61.846694 5.464101 -33.202799 8.381449 26.095721 38.680881 -6.726752 -8.364519 -8.262574 -2.224183 -7.898210 0.662767 0.783626 0.226943 0.000000 0.000000 0.000000 2.164690 -60.501809 5.342761 -27.582189 -8.518393 -29.617845 39.580659 5.529568 -4.662402 -17.585430 0.918179 22.969209 3.166705 -0.585073 -0.428697 0.000000 0.000000 0.000000 2.475030 -60.949084 4.923588 10.288359 1.505529 -1.861317 9.329057 0.055298 -5.685160 0.821035 -2.877937 1.242299 0.000000 0.000000 0.000000 10.164023 0.370060 -5.774354 -18.563015 20.035952 10.673493 4.512479 29.375599 -6.458810 0.000000 0.000000 0.000000 10.998424 -0.206567 -5.370202 -6.440552 -11.349906 -4.919575 -0.084418 -0.359015 -3.547267 -20.943773 7.244958 -33.805058 2.666948 -45.392262 3.182462 0.000000 0.000000 0.000000 9.736926 -0.056738 -5.271221 -4.907358 11.073812 4.344518 4.777499 1.945524 -0.391641 -34.192982 -21.443888 37.384822 -156.109656 63.927272 152.626055 0.000000 0.000000 0.000000 
